HIERARCHY
ROOT Hips
{
  OFFSET 5.84602e-005 68.8428 3.50346
  CHANNELS 6 Xposition Yposition Zposition Zrotation Xrotation Yrotation
  JOINT Spine
  {
    OFFSET 0 8.597 -4.6522
    CHANNELS 3 Zrotation Xrotation Yrotation
    JOINT Spine1
    {
      OFFSET 0 7.8454 0.4098
      CHANNELS 3 Zrotation Xrotation Yrotation
      JOINT Spine2
      {
        OFFSET 0 9.7078 -2.1609
        CHANNELS 3 Zrotation Xrotation Yrotation
        JOINT Neck
        {
          OFFSET 0 21.8761 -0.4549
          CHANNELS 3 Zrotation Xrotation Yrotation
          JOINT Head
          {
            OFFSET 0 12.3537 3.3602
            CHANNELS 3 Zrotation Xrotation Yrotation
            End Site
            {
              OFFSET 0.0001 18.9506 0.5657
            }
          }
        }
        JOINT LeftShoulder
        {
          OFFSET 2.2086 21.1115 7.2329
          CHANNELS 3 Zrotation Xrotation Yrotation
          JOINT LeftArm
          {
            OFFSET 13.1193 3.0282 -4.8998
            CHANNELS 3 Zrotation Xrotation Yrotation
            JOINT LeftForeArm
            {
              OFFSET 27.4081 -0.0973053 -0.2375
              CHANNELS 3 Zrotation Xrotation Yrotation
              JOINT LeftHand
              {
                OFFSET 22.8641 0.0662994 -0.1369
                CHANNELS 3 Zrotation Xrotation Yrotation
                JOINT LeftHandIndex1
                {
                  OFFSET 8.8614 0.775009 2.4612
                  CHANNELS 3 Zrotation Xrotation Yrotation
                  JOINT LeftHandIndex2
                  {
                    OFFSET 3.3146 -0.808304 0.5841
                    CHANNELS 3 Zrotation Xrotation Yrotation
                    JOINT LeftHandIndex3
                    {
                      OFFSET 2.2628 -0.552002 0.3989
                      CHANNELS 3 Zrotation Xrotation Yrotation
                      End Site
                      {
                        OFFSET 1.6102 -0.4807 0.2612
                      }
                    }
                  }
                }
                JOINT LeftHandMiddle1
                {
                  OFFSET 8.9937 0.895004 0.2143
                  CHANNELS 3 Zrotation Xrotation Yrotation
                  JOINT LeftHandMiddle2
                  {
                    OFFSET 4.0984 0.0113983 -0.0242
                    CHANNELS 3 Zrotation Xrotation Yrotation
                    JOINT LeftHandMiddle3
                    {
                      OFFSET 2.2716 0.00689697 -0.0138001
                      CHANNELS 3 Zrotation Xrotation Yrotation
                      End Site
                      {
                        OFFSET 2.0404 -0.1441 0.0027
                      }
                    }
                  }
                }
                JOINT LeftHandRing1
                {
                  OFFSET 8.5234 0.597198 -2.0164
                  CHANNELS 3 Zrotation Xrotation Yrotation
                  JOINT LeftHandRing2
                  {
                    OFFSET 3.7188 -0.188293 -0.2328
                    CHANNELS 3 Zrotation Xrotation Yrotation
                    JOINT LeftHandRing3
                    {
                      OFFSET 2.1191 -0.106598 -0.1332
                      CHANNELS 3 Zrotation Xrotation Yrotation
                      End Site
                      {
                        OFFSET 1.8737 -0.2304 -0.0886
                      }
                    }
                  }
                }
                JOINT LeftHandPinky1
                {
                  OFFSET 7.9094 -0.601089 -3.4825
                  CHANNELS 3 Zrotation Xrotation Yrotation
                  JOINT LeftHandPinky2
                  {
                    OFFSET 2.2874 -0.477005 -0.6314
                    CHANNELS 3 Zrotation Xrotation Yrotation
                    JOINT LeftHandPinky3
                    {
                      OFFSET 1.6774 -0.349396 -0.4633
                      CHANNELS 3 Zrotation Xrotation Yrotation
                      End Site
                      {
                        OFFSET 1.4888 -0.4091 -0.3416
                      }
                    }
                  }
                }
                JOINT LeftHandThumb1
                {
                  OFFSET 1.833 -1.3875 1.3896
                  CHANNELS 3 Zrotation Xrotation Yrotation
                  JOINT LeftHandThumb2
                  {
                    OFFSET 3.4129 -1.121 2.5732
                    CHANNELS 3 Zrotation Xrotation Yrotation
                    JOINT LeftHandThumb3
                    {
                      OFFSET 2.2474 -0.804199 1.6192
                      CHANNELS 3 Zrotation Xrotation Yrotation
                      End Site
                      {
                        OFFSET 1.6527 -0.5689 1.1317
                      }
                    }
                  }
                }
              }
            }
          }
        }
        JOINT RightShoulder
        {
          OFFSET -2.2086 21.1115 7.2329
          CHANNELS 3 Zrotation Xrotation Yrotation
          JOINT RightArm
          {
            OFFSET -13.1216 3.0287 -4.9007
            CHANNELS 3 Zrotation Xrotation Yrotation
            JOINT RightForeArm
            {
              OFFSET -27.4081 -0.0973053 -0.2375
              CHANNELS 3 Zrotation Xrotation Yrotation
              JOINT RightHand
              {
                OFFSET -22.8641 0.0664063 -0.1369
                CHANNELS 3 Zrotation Xrotation Yrotation
                JOINT RightHandIndex1
                {
                  OFFSET -8.8614 0.774994 2.4612
                  CHANNELS 3 Zrotation Xrotation Yrotation
                  JOINT RightHandIndex2
                  {
                    OFFSET -3.3146 -0.808304 0.5841
                    CHANNELS 3 Zrotation Xrotation Yrotation
                    JOINT RightHandIndex3
                    {
                      OFFSET -2.2628 -0.552002 0.3989
                      CHANNELS 3 Zrotation Xrotation Yrotation
                      End Site
                      {
                        OFFSET -1.6102 -0.4807 0.2612
                      }
                    }
                  }
                }
                JOINT RightHandMiddle1
                {
                  OFFSET -8.9937 0.894989 0.2143
                  CHANNELS 3 Zrotation Xrotation Yrotation
                  JOINT RightHandMiddle2
                  {
                    OFFSET -4.0984 0.0113983 -0.0242
                    CHANNELS 3 Zrotation Xrotation Yrotation
                    JOINT RightHandMiddle3
                    {
                      OFFSET -2.2716 0.00691223 -0.0138001
                      CHANNELS 3 Zrotation Xrotation Yrotation
                      End Site
                      {
                        OFFSET -2.0404 -0.1441 0.0027
                      }
                    }
                  }
                }
                JOINT RightHandRing1
                {
                  OFFSET -8.5234 0.597198 -2.0164
                  CHANNELS 3 Zrotation Xrotation Yrotation
                  JOINT RightHandRing2
                  {
                    OFFSET -3.7188 -0.188309 -0.2328
                    CHANNELS 3 Zrotation Xrotation Yrotation
                    JOINT RightHandRing3
                    {
                      OFFSET -2.1191 -0.106598 -0.1332
                      CHANNELS 3 Zrotation Xrotation Yrotation
                      End Site
                      {
                        OFFSET -1.8737 -0.2304 -0.0886
                      }
                    }
                  }
                }
                JOINT RightHandPinky1
                {
                  OFFSET -7.9094 -0.601105 -3.4825
                  CHANNELS 3 Zrotation Xrotation Yrotation
                  JOINT RightHandPinky2
                  {
                    OFFSET -2.2874 -0.477005 -0.6314
                    CHANNELS 3 Zrotation Xrotation Yrotation
                    JOINT RightHandPinky3
                    {
                      OFFSET -1.6774 -0.349396 -0.4633
                      CHANNELS 3 Zrotation Xrotation Yrotation
                      End Site
                      {
                        OFFSET -1.4888 -0.4091 -0.3416
                      }
                    }
                  }
                }
                JOINT RightHandThumb1
                {
                  OFFSET -1.833 -1.38751 1.3896
                  CHANNELS 3 Zrotation Xrotation Yrotation
                  JOINT RightHandThumb2
                  {
                    OFFSET -3.41299 -1.12099 2.5732
                    CHANNELS 3 Zrotation Xrotation Yrotation
                    JOINT RightHandThumb3
                    {
                      OFFSET -2.24741 -0.804108 1.6192
                      CHANNELS 3 Zrotation Xrotation Yrotation
                      End Site
                      {
                        OFFSET -1.6527 -0.5689 1.1317
                      }
                    }
                  }
                }
              }
            }
          }
        }
      }
    }
  }
  JOINT RightUpLeg
  {
    OFFSET -9.1966 3.8861 -0.7581
    CHANNELS 3 Zrotation Xrotation Yrotation
    JOINT RightLeg
    {
      OFFSET -0.7359 -41.0265 0
      CHANNELS 3 Zrotation Xrotation Yrotation
      JOINT RightFoot
      {
        OFFSET 0 -40.2855 0
        CHANNELS 3 Zrotation Xrotation Yrotation
        JOINT RightToeBase
        {
          OFFSET 0 -5.6122 11.7359
          CHANNELS 3 Zrotation Xrotation Yrotation
          End Site
          {
            OFFSET 0 0 7.8731
          }
        }
      }
    }
  }
  JOINT LeftUpLeg
  {
    OFFSET 9.1965 3.8864 -0.7581
    CHANNELS 3 Zrotation Xrotation Yrotation
    JOINT LeftLeg
    {
      OFFSET 0.7359 -41.0268 0
      CHANNELS 3 Zrotation Xrotation Yrotation
      JOINT LeftFoot
      {
        OFFSET 0 -40.2855 0
        CHANNELS 3 Zrotation Xrotation Yrotation
        JOINT LeftToeBase
        {
          OFFSET 0 -5.6122 11.7359
          CHANNELS 3 Zrotation Xrotation Yrotation
          End Site
          {
            OFFSET 0 0 7.8731
          }
        }
      }
    }
  }
}
MOTION
Frames:	5
Frame Time:	0.0333333
5.84602e-005 68.8428 3.50346 0 0 -0 0 0 -0 0 0 -0 0 0 -0 0 0 -0 0 0 -0 0 0 -0 0 0 -0 0 0 -0 0 0 -0 0 0 -0 0 0 -0 0 0 -0 0 0 -0 -0.0146107 -8.87603e-005 -2.63497e-007 2.99804e-018 -2.42657e-020 -1.42182e-022 0 0 -0 -0.0187562 -0.001176 5.858e-005 5.06224e-018 3.88251e-019 1.21329e-020 0 0 -0 -0.012269 -0.00324817 0.000675346 -1.74678e-018 3.88251e-019 -0 0 0 -0 0 0 -0 0 0 -0 0 0 -0 0 0 -0 0 0 -0 0 0 -0 0 0 -0 0 0 -0 0 0 -0 0 0 -0 0.0149955 -9.10982e-005 2.64101e-007 -9.69331e-018 1.21329e-020 -4.7394e-023 0 0 -0 0.0189956 -0.00119102 -5.96516e-005 -5.41541e-019 0 2.42657e-020 0 0 -0 0.0122698 -0.00324857 -0.000673756 -2.00796e-019 0 -1.94126e-019 0 0 -0 0 0 -0 0 0 -0 3.39842 1.33031 -0.0637918 -5.65207e-008 0.834868 -0.000436188 -3.39935 -2.16518 -0.0642563 -8.89002e-024 -1.18485e-023 -1.48106e-024 -3.39844 1.35642 0.0640283 -3.18788e-007 0.782166 -0.000588827 3.39931 -2.13858 0.0634662 1.1399e-023 0 -0 
1.01866 20.1424 -5.36783 -6.64905e-015 2.99942 180 -0.308259 -3.65128 -0.546404 -0.653473 -7.29938 -1.11594 -0.653473 -7.29938 -1.11594 -3.60755e-006 -0.379451 1.95075e-006 -6.89925e-007 -9.12135 -4.14737e-007 -13.2739 -0.456493 -16.9842 -135.33 -72.4573 -70.337 -0.476346 74.7354 2.15124 6.17266 -4.02078 33.8579 5.37837e-006 -1.11267e-006 -5.55287e-007 -9.70751e-006 6.55329e-007 -4.56644e-007 5.37837e-006 -1.11267e-006 -5.55287e-007 5.37837e-006 -1.11267e-006 -5.55287e-007 -0.0146194 -8.78483e-005 -2.42834e-006 5.37782e-006 -1.1126e-006 -5.55433e-007 5.37837e-006 -1.11267e-006 -5.55287e-007 -0.0187385 -0.00117305 5.90517e-005 8.79078e-006 -8.41159e-007 -5.271e-007 5.37837e-006 -1.11267e-006 -5.55287e-007 -0.0122682 -0.00324571 0.000675203 5.37788e-006 -1.11277e-006 -5.55533e-007 5.37837e-006 -1.11267e-006 -5.55287e-007 -9.70751e-006 6.55329e-007 -4.56644e-007 5.37837e-006 -1.11267e-006 -5.55287e-007 4.2846 -9.85878 -26.3474 -24.1535 -65.6421 -79.282 5.42162 73.1344 -1.91492 -46.4176 11.7001 3.65347 -5.21693e-006 -2.07773e-007 1.11879e-007 -4.49011e-006 1.42522e-006 -2.82529e-006 -1.20257e-006 2.17402e-007 3.25947e-006 -5.21693e-006 -2.07773e-007 1.11879e-007 0.015028 -8.74904e-005 5.41391e-006 -1.20236e-006 2.17828e-007 3.25944e-006 -5.21693e-006 -2.07773e-007 1.11879e-007 0.0189795 -0.00118839 -5.62594e-005 -1.20228e-006 2.17925e-007 3.25944e-006 -5.21693e-006 -2.07773e-007 1.11879e-007 0.0122519 -0.00324015 -0.000675235 -1.20231e-006 2.17699e-007 3.25947e-006 -5.21693e-006 -2.07773e-007 1.11879e-007 -4.49011e-006 1.42522e-006 -2.82529e-006 -1.20257e-006 2.17402e-007 3.25947e-006 -34.196 -13.3828 46.4948 120.381 42.0082 -152.767 -18.575 41.2553 61.8187 3.18055e-015 0 6.36111e-015 36.1836 -13.5519 -47.2257 -118.163 42.5572 151.187 21.0556 41.7807 -64.7528 6.14037e-006 2.13495e-007 -2.07882e-006 
1.01881 19.8539 -5.20463 -6.64912e-015 2.99883 180 -0.308258 -3.65127 -0.546403 -0.653473 -7.29939 -1.11594 -0.653473 -7.29939 -1.11594 -2.57763e-006 -0.511512 6.84546e-007 7.00799e-008 -9.12135 -5.24695e-007 -13.5531 -0.190541 -16.9315 -135.33 -72.4572 -70.337 -0.7909 74.7375 2.15186 6.96693 -3.86459 32.6055 -1.15801e-007 1.19595e-006 -1.18943e-007 -5.62281e-008 4.19562e-007 -1.8534e-006 -1.15801e-007 1.19595e-006 -1.18943e-007 -1.15801e-007 1.19595e-006 -1.18943e-007 -0.0145947 -8.83766e-005 -2.69372e-006 -1.158e-007 1.19597e-006 -1.1879e-007 -1.15801e-007 1.19595e-006 -1.18943e-007 -0.0187468 -0.00117434 5.77985e-005 -1.15801e-007 1.19597e-006 -1.18746e-007 -1.15801e-007 1.19595e-006 -1.18943e-007 -0.0122287 -0.0032353 0.000671734 -1.15797e-007 1.19597e-006 -1.18812e-007 -1.15801e-007 1.19595e-006 -1.18943e-007 -5.62281e-008 4.19562e-007 -1.8534e-006 -1.15801e-007 1.19595e-006 -1.18943e-007 3.28972 -9.5789 -25.9735 -24.1746 -65.3935 -79.7156 5.41559 73.2492 -1.93028 -46.4177 11.7001 3.65348 1.59028e-015 -3.18055e-015 3.18055e-015 3.18055e-015 3.18055e-015 3.18055e-015 1.59028e-015 -6.36111e-015 -3.18055e-015 1.59028e-015 -3.18055e-015 3.18055e-015 0.014998 -9.08293e-005 -7.05905e-006 3.18055e-015 -6.36111e-015 3.18055e-015 1.59028e-015 -3.18055e-015 3.18055e-015 0.0190037 -0.0011911 -5.69681e-005 4.77083e-015 -3.18055e-015 -0 1.59028e-015 -3.18055e-015 3.18055e-015 0.0122508 -0.00324136 -0.000677707 3.18055e-015 0 -3.18055e-015 1.59028e-015 -3.18055e-015 3.18055e-015 3.18055e-015 3.18055e-015 3.18055e-015 1.59028e-015 -6.36111e-015 -3.18055e-015 -34.6673 -13.5212 46.3878 120.964 41.8854 -153.166 -18.8758 40.8108 62.1912 2.5587e-006 -5.29258e-007 -2.10896e-006 36.6776 -13.6758 -47.1089 -118.738 42.4479 151.582 21.3765 41.3093 -65.1396 1.11957e-005 -7.32438e-007 -9.6452e-006 
1.01896 19.5654 -5.04151 -6.64912e-015 2.99883 180 -0.308258 -3.65127 -0.546403 -0.653473 -7.29939 -1.11594 -0.653473 -7.29939 -1.11594 -1.76249e-006 -0.643649 -2.22184e-006 -8.23508e-008 -9.12135 2.60023e-007 -13.8325 0.0752044 -16.8775 -135.33 -72.4572 -70.337 -1.10528 74.7376 2.15218 7.76663 -3.72537 31.3476 -6.43687e-008 4.13004e-007 -1.85251e-006 -1.29167e-007 9.48708e-007 -2.51092e-006 -6.43687e-008 4.13003e-007 -1.85251e-006 -6.43687e-008 4.13004e-007 -1.85251e-006 -0.0146163 -8.7967e-005 -5.01362e-006 -6.43452e-008 4.1324e-007 -1.85246e-006 -6.43687e-008 4.13004e-007 -1.85251e-006 -0.0187177 -0.00117278 5.73057e-005 -6.43556e-008 4.13308e-007 -1.85245e-006 -6.43687e-008 4.13004e-007 -1.85251e-006 -0.0123035 -0.00325717 0.000677123 -6.43979e-008 4.13208e-007 -1.85247e-006 -6.43687e-008 4.13004e-007 -1.85251e-006 -1.29167e-007 9.48708e-007 -2.51092e-006 -6.43687e-008 4.13003e-007 -1.85251e-006 2.29217 -9.30503 -25.5945 -24.1911 -65.1448 -80.1451 5.4062 73.3636 -1.94583 -46.4176 11.7001 3.65348 1.54994e-006 5.83017e-007 -1.67973e-007 1.54994e-006 5.83017e-007 -1.67973e-007 1.54994e-006 5.83017e-007 -1.67973e-007 1.54994e-006 5.83017e-007 -1.67973e-007 0.0149785 -9.03923e-005 2.94838e-007 1.54989e-006 5.82995e-007 -1.6805e-007 1.54994e-006 5.83017e-007 -1.67973e-007 0.0190017 -0.00119179 -5.76622e-005 1.54987e-006 5.82994e-007 -1.68086e-007 1.54994e-006 5.83017e-007 -1.67973e-007 0.0122534 -0.0032411 -0.000671445 1.54989e-006 5.83019e-007 -1.68077e-007 1.54994e-006 5.83017e-007 -1.67973e-007 1.54994e-006 5.83017e-007 -1.67973e-007 1.54994e-006 5.83017e-007 -1.67973e-007 -35.1393 -13.6592 46.2791 121.545 41.7597 -153.563 -19.1708 40.3647 62.5581 -6.36111e-015 1.27222e-014 -6.36111e-015 37.1723 -13.7992 -46.9905 -119.311 42.3358 151.975 21.6908 40.8361 -65.5202 6.36111e-015 -1.27222e-014 -3.18055e-015 
1.01911 19.2769 -4.8784 -6.64912e-015 2.99883 180 -0.308258 -3.65128 -0.546404 -0.653475 -7.2994 -1.11594 -0.653474 -7.2994 -1.11594 -4.84122e-007 -0.775745 5.2863e-006 -3.52501e-007 -9.12135 -4.63941e-007 -14.1122 0.340771 -16.8222 -135.33 -72.4573 -70.337 -1.41931 74.7359 2.1521 8.57114 -3.60344 30.0848 3.87298e-010 1.26393e-007 1.19209e-006 -1.44277e-007 1.19209e-006 -1.26393e-007 1.44277e-007 -1.19209e-006 1.26393e-007 3.87298e-010 1.26393e-007 1.19209e-006 -0.0145866 -8.61284e-005 1.51859e-006 1.44277e-007 -1.1921e-006 1.26242e-007 3.87298e-010 1.26393e-007 1.19209e-006 -0.0187841 -0.00117685 5.94208e-005 2.1638e-006 -1.07193e-006 -9.90137e-007 3.87298e-010 1.26393e-007 1.19209e-006 -0.0122385 -0.00323934 0.000673769 1.44273e-007 -1.1921e-006 1.26262e-007 3.87298e-010 1.26393e-007 1.19209e-006 -1.44277e-007 1.19209e-006 -1.26393e-007 1.44277e-007 -1.19209e-006 1.26393e-007 1.29213 -9.03728 -25.2104 -24.203 -64.8959 -80.5705 5.39348 73.4777 -1.96159 -46.4176 11.7001 3.65348 -9.2842e-007 -6.16176e-007 3.45743e-006 -6.78771e-007 -2.91154e-006 7.2351e-007 6.24222e-007 -3.35953e-008 3.29096e-006 -9.2842e-007 -6.16176e-007 3.45743e-006 0.0149798 -9.49185e-005 2.24221e-006 6.24366e-007 -3.3166e-008 3.29097e-006 -9.2842e-007 -6.16176e-007 3.45743e-006 0.0190286 -0.00119586 -5.68119e-005 6.24436e-007 -3.30598e-008 3.29096e-006 -9.2842e-007 -6.16176e-007 3.45743e-006 0.0122825 -0.00325218 -0.00067012 6.24431e-007 -3.32696e-008 3.29094e-006 -9.2842e-007 -6.16176e-007 3.45743e-006 -6.78771e-007 -2.91154e-006 7.2351e-007 6.24222e-007 -3.35953e-008 3.29096e-006 -35.6121 -13.7968 46.1685 122.123 41.6312 -153.958 -19.4601 39.917 62.9196 3.43704e-007 2.79994e-007 7.27105e-007 37.6678 -13.9222 -46.8705 -119.882 42.221 152.366 21.999 40.3613 -65.8948 1.00931e-005 -4.06094e-007 -1.26218e-006 
